<svg xmlns="http://www.w3.org/2000/svg" xmlns:xlink="http://www.w3.org/1999/xlink" width="500" height="500"><switch><g><defs><path id="a" d="M293.615 44.666c12.04 13.793 20.555 29.064 20.555 29.064 9.98 20.256-4.404 23.486-4.404 23.486-17.911 5.279-37.58-8.809-37.58-8.809-3.227-2.35-5.286-1.465-5.286-1.465-16.145.581-68.106 5.574-68.106 5.574-2.349.295-3.819 1.907-3.819 1.907-81.099 44.405-117.799-10.276-117.799-10.276-13.434-19.519-14.014.737-14.014.737 6.459 64.587 86.899 61.943 86.899 61.943 4.984-1.175.877 3.229.877 3.229-2.052 4.114-8.809 13.508-8.809 13.508-.879 2.639-11.155 9.687-11.155 9.687-7.632 5.284-4.992 32.88-4.992 32.88 0 5.583 3.23 7.634 3.23 7.634 2.643 1.468 2.643 7.628 2.643 7.628 8.809 52.555-39.925 91.304-39.925 91.304-7.633 9.987-6.167 14.093-6.167 14.093-.585 31.713 2.055 36.113 2.055 36.113 3.23 16.437 18.789 10.862 18.789 10.862-2.055 6.457 11.448 18.495 11.448 18.495 5.581 4.405 13.211-1.47 13.211-1.47 4.403-3.519 7.925-.289 7.925-.289 3.527 2.055 6.463 2.64 6.463 2.64 12.034 1.765 12.916-4.99 12.916-4.99 1.17-3.523 5.576 0 5.576 0 13.208 12.037 36.701-.289 36.701-.289 19.081-9.988 26.417-6.46 26.417-6.46 39.93 7.629 68.992 90.124 68.992 90.124 2.056 4.404 2.938.88 2.938.88.293-.88.585-17.611.585-17.611-1.169-7.339 5.581-25.246 5.581-25.246 3.814-12.043 3.229-22.02 3.229-22.02-.879-11.453-10.569-24.072-10.569-24.072-2.348-4.402-5.282-3.234-5.282-3.234-8.225.296-12.039-5.572-12.039-5.572-3.518-3.825-8.807-19.963-8.807-19.963-5.578-11.162-19.965 7.04-19.965 7.04-7.633 9.098-13.5 9.098-13.5 9.098-4.994.885-4.702-1.759-4.702-1.759-.878-12.919-18.2-11.153-18.2-11.153-11.154 0-10.57 13.208-10.57 13.208-1.174 8.809-12.618 12.336-12.618 12.336-5.581 2.055-17.326-14.977-17.326-14.977-4.698-6.753-1.47-10.567-1.47-10.567 1.763-9.689-5.866-18.792-5.866-18.792-2.645-2.639-1.178-12.916-1.178-12.916 3.23-8.221 2.64-10.569 2.64-10.569-.292-11.742-30.529-8.804-30.529-8.804-11.743 1.171-9.688-8.219-9.688-8.219 0-5.582 4.989-11.157 4.989-11.157 21.434-26.425 32.292-66.938 32.292-66.938 2.644-3.528 5.581 1.175 5.581 1.175 4.404 4.697 3.522 26.128 3.522 26.128 0 6.46 10.864 6.46 10.864 6.46 6.75 2.054-5.285 13.208-5.285 13.208-12.331 14.971 19.376 26.714 19.376 26.714 3.233 0 3.814 7.34 3.814 7.34.59 12.038 6.169 19.381 6.169 19.381 2.35 4.694 5.868 1.76 5.868 1.76 6.459-3.525 27.014-27.306 27.014-27.306 4.401-8.809 26.126-33.763 26.126-33.763 6.164-8.509 37.872-43.447 37.872-43.447 11.446-12.038 19.374 6.458 19.374 6.458 4.406 12.623 17.324 10.569 17.324 10.569 33.759-2.351 57.834-33.469 57.834-33.469 8.218-9.979-.294-20.551-.294-20.551-16.442-20.256-51.67-18.492-51.67-18.492-21.137-.59-33.468 16.731-33.468 16.731-3.52 3.529-6.751.885-6.751.885-6.463-2.646.585-14.393.585-14.393 1.761-4.104-3.525-1.759-3.525-1.759-10.274 4.993-12.034 21.14-12.034 21.14-.587 10.569-4.402 15.269-4.402 15.269-3.229 3.514-7.339 1.17-7.339 1.17-9.398-7.049-20.555-4.404-20.555-4.404-11.448.295-9.684-15.562-9.684-15.562 3.522-16.729 30.238-18.197 30.238-18.197 11.448.883 21.135-10.572 21.135-10.572 8.267-8.06 20.011-9.529 20.011-9.529 4.693-6.164 26.959-34.209 26.959-34.209 3.234-2.645 2.941-9.104 2.941-9.104-.297-27.599-39.341-59.304-39.341-59.304-7.339-5.873-14.092-6.164-14.092-6.164-12.62 1.76-6.753 9.984-6.753 9.984"/></defs><linearGradient id="b" gradientUnits="userSpaceOnUse" x1="63.162" y1="254.212" x2="400.62" y2="254.212"><stop offset="0"/><stop offset=".091" stop-color="#1b0b00"/><stop offset=".189" stop-color="#311500"/><stop offset=".283" stop-color="#3f1a00"/><stop offset=".369" stop-color="#431c00"/><stop offset=".776" stop-color="#713617"/><stop offset=".998" stop-color="#7b2a00"/></linearGradient><use xlink:href="#a" overflow="visible" fill="url(#b)"/><clipPath id="c"><use xlink:href="#a" overflow="visible"/></clipPath><linearGradient id="d" gradientUnits="userSpaceOnUse" x1="1.714" y1="504.168" x2="6.288" y2="504.168" gradientTransform="matrix(74.7891 0 0 -74.7891 -65.063 37961.563)"><stop offset="0"/><stop offset=".091" stop-color="#1b0b00"/><stop offset=".189" stop-color="#311500"/><stop offset=".283" stop-color="#3f1a00"/><stop offset=".369" stop-color="#431c00"/><stop offset=".776" stop-color="#713617"/><stop offset=".998" stop-color="#7b2a00"/></linearGradient><path clip-path="url(#c)" fill="url(#d)" d="M63.162 34.683h346.711v441.248H63.162z"/><defs><path id="e" d="M22.102 30.051H453.22v485.526H22.102z"/></defs><clipPath id="f"><use xlink:href="#e" overflow="visible"/></clipPath><linearGradient id="g" gradientUnits="userSpaceOnUse" x1="41.329" y1="186.246" x2="128.795" y2="186.246"><stop offset="0" stop-color="#903d1f"/><stop offset=".203" stop-color="#7a3413"/><stop offset=".452" stop-color="#672c08"/><stop offset=".704" stop-color="#5b2802"/><stop offset=".963" stop-color="#572600"/></linearGradient><path d="M127.452 167.674s4.111-2.644-2.055-5.875c0 0-14.974-9.978-28.477-11.152 0 0-37.579-1.18-51.378 9.982 0 0-7.341 4.989-2.645 17.322 0 0 19.381 31.116 39.638 39.043 0 0 17.907 7.633 37.872 3.819 0 0 9.098-1.471 4.99-3.819 0 0-4.697-2.641-4.99-6.459 0 0-1.174-24.954-.296-30.529 0 0-.292-2.938 2.35-5.289 0 0 5.577-7.339 4.991-7.043" clip-path="url(#f)" fill="url(#g)"/><path d="M276.928 433.667s9.543 13.655 14.676 31.124c0 0 1.762 8.804 7.05 10.564l4.36-4.659s-4.951-28.217 5.035-39.963M377.112 225.303c26.789-16.147 30.091-33.031 30.091-33.031 1.468-15.411-27.154-26.786-27.154-26.786-15.048-6.24-44.402-5.137-44.402-5.137l-11.745-13.946c4.77-5.873 9.54-13.212 9.54-13.212 8.441-12.109 11.009-12.476 11.009-12.476 19.082-19.818 10.277-27.523 10.277-27.523-2.938-18.72-35.964-53.948-35.964-53.948-9.907-9.903-22.384-7.339-22.384-7.339-8.444 1.47-7.341 11.011-7.341 11.011 20.547 16.879 27.524 40.369 27.524 40.369 0 24.956-40.735 4.771-41.837 2.935-1.103-1.836-8.439-2.935-8.439-2.935-9.174 0-64.586 5.137-64.586 5.137-3.672 0-5.509.731-5.509.731-13.944 12.48-44.767 19.087-44.767 19.087-24.589 6.602-44.774-3.677-44.774-3.677-21.284-6.968-32.292-29.354-32.292-29.354-4.404-7.338-10.277-1.465-10.277-1.465-6.971 8.071-1.463 21.649-1.463 21.649s5.867 22.387 25.319 36.698c0 0 20.181 14.311 56.881 16.509 0 0 6.97-1.465 1.098 4.404l-15.043 8.813s-22.459-12.333-40.077-13.218c0 0-31.852.37-42.496 7.708 0 0-14.678 5.142-7.337 23.853 0 0 8.074 9.541 12.107 15.413 0 0 18.717 19.083 25.693 22.017 0 0 15.042 6.978 28.988 7.343" clip-path="url(#f)" fill="none" stroke="#fff" stroke-width=".679"/><linearGradient id="h" gradientUnits="userSpaceOnUse" x1="5.363" y1="504.166" x2="10.013" y2="504.166" gradientTransform="matrix(61.0839 0 0 -61.0839 -51.125 31103.188)"><stop offset=".036" stop-color="#572600"/><stop offset="1"/></linearGradient><path d="M295.854 271.814h28.514c13.912 0 17.536 7.836 15.244 18.613-1.98 9.312-6.899 15.387-15.499 16.657l-.039.2c8.649.78 10.105 6.366 8.128 15.678l-1.272 5.975c-.771 3.626-1.771 8.327-1.183 9.702.325.781.549 1.565 1.6 2.156l-.208.979h-19.4c-.971-3.725.446-10.387 1.071-13.327l.999-4.705c1.688-7.936.56-9.992-3.85-9.992h-4.8l-5.963 28.024H280.97l14.884-69.96zm11.929 29.589h3.624c5.193 0 8.353-3.33 9.417-8.326 1.209-5.685-.524-8.135-6.011-8.135h-3.527l-3.503 16.461zm29.88 27.24l30.869-41.936h-20.479l3.171-14.893h41.741l-2.795 13.128-31.263 41.937h22.341l-3.167 14.896H334.87l2.793-13.132zm55.896-56.829h19.401l-3.866 52.714h.195l18.563-52.714h19.4l-29.971 69.96h-23.517l-.205-69.96z" fill="url(#h)"/></g></switch></svg>